<?xml version="1.0" encoding="UTF-8" standalone="no"?>
<!-- Generator: Adobe Illustrator 21.0.0, SVG Export Plug-In . SVG Version: 6.00 Build 0)  -->

<svg
   xmlns:dc="http://purl.org/dc/elements/1.1/"
   xmlns:cc="http://creativecommons.org/ns#"
   xmlns:rdf="http://www.w3.org/1999/02/22-rdf-syntax-ns#"
   xmlns:svg="http://www.w3.org/2000/svg"
   xmlns="http://www.w3.org/2000/svg"
   xmlns:sodipodi="http://sodipodi.sourceforge.net/DTD/sodipodi-0.dtd"
   xmlns:inkscape="http://www.inkscape.org/namespaces/inkscape"
   version="1.1"
   id="Capa_1"
   x="0px"
   y="0px"
   viewBox="0 0 700 400"
   xml:space="preserve"
   sodipodi:docname="logo.svg"
   inkscape:version="0.92.1 r15371"
   width="700"
   height="400"
   inkscape:export-filename="C:\Users\Meakoi\Desktop\roneeeeeel files\REACT\typing-app\src\logo.png"
   inkscape:export-xdpi="96"
   inkscape:export-ydpi="96"><metadata
     id="metadata4578"><rdf:RDF><cc:Work
         rdf:about=""><dc:format>image/svg+xml</dc:format><dc:type
           rdf:resource="http://purl.org/dc/dcmitype/StillImage" /><dc:title /></cc:Work></rdf:RDF></metadata><defs
     id="defs4576" /><sodipodi:namedview
     pagecolor="#ffffff"
     bordercolor="#666666"
     borderopacity="1"
     objecttolerance="10"
     gridtolerance="10"
     guidetolerance="10"
     inkscape:pageopacity="0"
     inkscape:pageshadow="2"
     inkscape:window-width="1366"
     inkscape:window-height="705"
     id="namedview4574"
     showgrid="false"
     showguides="false"
     inkscape:zoom="0.74025241"
     inkscape:cx="193.58146"
     inkscape:cy="351.16862"
     inkscape:window-x="-8"
     inkscape:window-y="-8"
     inkscape:window-maximized="1"
     inkscape:current-layer="g4840" /><g
     id="g4543"
     transform="translate(0,-112)" /><g
     id="g4545"
     transform="translate(0,-112)" /><g
     id="g4547"
     transform="translate(0,-112)" /><g
     id="g4549"
     transform="translate(0,-112)" /><g
     id="g4551"
     transform="translate(0,-112)" /><g
     id="g4553"
     transform="translate(0,-112)" /><g
     id="g4555"
     transform="translate(0,-112)" /><g
     id="g4557"
     transform="translate(0,-112)" /><g
     id="g4559"
     transform="translate(0,-112)" /><g
     id="g4561"
     transform="translate(0,-112)" /><g
     id="g4563"
     transform="translate(0,-112)" /><g
     id="g4565"
     transform="translate(0,-112)" /><g
     id="g4567"
     transform="translate(0,-112)" /><g
     id="g4569"
     transform="translate(0,-112)" /><g
     id="g4571"
     transform="translate(0,-112)" /><g
     id="g5470"
     transform="matrix(0.15066753,0,0,0.11569109,280.74537,281.92654)"><g
       id="g5414" /><g
       id="g5416" /><g
       id="g5418" /><g
       id="g5420" /><g
       id="g5422" /><g
       id="g5424" /><g
       id="g5426" /><g
       id="g5428" /><g
       id="g5430" /><g
       id="g5432" /><g
       id="g5434" /><g
       id="g5436" /><g
       id="g5438" /><g
       id="g5440" /><g
       id="g5442" /><g
       id="g5444" /></g><g
     id="g4726"
     transform="translate(0,-112)"><rect
       ry="21.22349"
       y="143.21715"
       x="40.474529"
       height="335.39661"
       width="629.70984"
       id="rect6776"
       style="opacity:1;fill:#1dd1a1;fill-opacity:1;stroke:#1dd1a1;stroke-width:5.4808898;stroke-miterlimit:4;stroke-dasharray:none;stroke-opacity:1" /><g
       inkscape:export-ydpi="96"
       inkscape:export-xdpi="96"
       transform="translate(123.31165,110.30606)"
       id="g6740"><g
         id="g4840"
         transform="matrix(2.4878963,0,0,2.4352882,-399.17501,-32.546549)"
         inkscape:export-filename="C:\Users\Meakoi\Desktop\roneeeeeel files\REACT\typing-app\logo.png"
         inkscape:export-xdpi="96"
         inkscape:export-ydpi="96"><path
           id="path4485"
           d="m 175.23678,128.79483 c 1.37105,-0.56905 2.90036,-1.17435 4.5185,-1.76136 1.40466,-0.50849 2.87666,-1.00372 4.37142,-1.45366 -3.6838,-4.48559 -7.7914,-9.19849 -12.37245,-14.1351 -1.23785,-1.33342 -2.51181,-2.68615 -3.81881,-4.05071 l -2.75198,3.30157 -3.05457,3.66134 c 1.31207,1.27951 2.6095,2.60131 3.89685,3.95672 3.15328,3.32084 6.23235,6.84365 9.21104,10.4812 z"
           style="fill:#5f6c75;stroke-width:0.26350084"
           inkscape:connector-curvature="0" /><path
           id="path4487"
           d="m 175.23678,128.79483 c 1.37105,-0.56905 2.90036,-1.17435 4.5185,-1.76136 -3.4438,-4.1496 -7.24821,-8.49017 -11.45149,-13.02028 -1.0158,-1.09373 -2.057,-2.20346 -3.1204,-3.318 l -3.05457,3.66134 c 1.31207,1.27951 2.6095,2.60132 3.89686,3.95672 3.15334,3.32122 6.23241,6.84403 9.2111,10.48158 z"
           style="fill:#7e8b96;stroke-width:0.26350084"
           inkscape:connector-curvature="0" /><g
           transform="matrix(-0.1426694,0.24097978,0.21093717,0.13037903,108.77308,47.584459)"
           id="g4592"><path
             style="fill:#222f3e;fill-opacity:1"
             d="m 92.34928,347.8114 -1.996721,0.52107 c -1.289625,0.34794 -2.592076,0.52937 -3.874978,0.58375 -8.506281,0.36135 -16.472559,-5.24348 -18.7118,-13.8035 L 61.878817,312.59675 59.072964,301.86618 55.95975,289.94797 53.153897,279.2174 49.809145,266.40831 47.002464,255.66777 43.704085,243.04247 40.897404,232.30193 39.15069,225.63664 c -2.363344,-9.05143 2.480323,-18.37737 10.950236,-21.82229 0.729467,-0.29038 1.493222,-0.54246 2.280384,-0.75435 l 2.005777,-0.53286 c 9.840505,-2.56434 20.011466,3.38015 22.576725,13.23162 l 1.577726,6.02006 2.805853,10.73057 3.299207,12.63527 2.805853,10.73057 3.345663,12.82006 2.805853,10.73057 3.112386,11.90824 2.80585,10.73057 6.055957,23.1612 c 2.57705,9.84848 -3.37932,20.00939 -13.22888,22.58553 z"
             id="path4489"
             inkscape:connector-curvature="0" /><path
             style="fill:#323e4d;fill-opacity:1"
             d="m 54.881635,202.84258 -2.004467,0.51634 c -0.788915,0.20174 -1.556146,0.45096 -2.292028,0.74292 -1.295727,3.42375 -1.592285,7.25753 -0.624868,11.05582 l 32.291323,126.96353 c 0.706112,2.78126 2.020643,5.25623 3.761413,7.31149 1.280697,-0.0398 2.581705,-0.22048 3.874959,-0.55506 L 91.8899,348.3675 c 9.86408,-2.5134 15.88588,-12.635 13.37248,-22.49908 L 77.373579,216.21361 c -2.50627,-9.86262 -12.629326,-15.8773 -22.491944,-13.37103 z"
             id="path4491"
             inkscape:connector-curvature="0" /><g
             style="fill:#e45255;fill-opacity:1"
             id="g4505"
             transform="rotate(-4.3685529,192.01383,320.76046)"><polygon
               style="fill:#e45255;fill-opacity:1"
               points="99.616,286.13 101.524,297.056 63.137,304.437 61.229,293.511 "
               id="polygon4497" /><polygon
               style="fill:#e45255;fill-opacity:1"
               points="95.592,263.079 97.5,274.005 59.113,281.376 57.205,270.45 "
               id="polygon4499" /><polygon
               style="fill:#e45255;fill-opacity:1"
               points="91.411,239.1 93.319,250.026 54.932,257.407 53.024,246.471 "
               id="polygon4501" /><polygon
               style="fill:#e45255;fill-opacity:1"
               points="87.262,215.309 89.17,226.235 50.783,233.616 48.875,222.68 "
               id="polygon4503" /></g><g
             style="fill:#c63437;fill-opacity:1"
             id="g4515"
             transform="rotate(-4.1704984,198.63517,323.51939)"><polygon
               style="fill:#c63437;fill-opacity:1"
               points="75.69,302.029 63.137,304.437 61.229,293.511 73.782,291.103 "
               id="polygon4507" /><polygon
               style="fill:#c63437;fill-opacity:1"
               points="71.665,278.968 59.113,281.376 57.205,270.45 69.758,268.042 "
               id="polygon4509" /><polygon
               style="fill:#c63437;fill-opacity:1"
               points="67.485,254.999 54.932,257.407 53.024,246.471 65.577,244.063 "
               id="polygon4511" /><polygon
               style="fill:#c63437;fill-opacity:1"
               points="63.325,231.208 50.783,233.616 48.875,222.68 61.417,220.272 "
               id="polygon4513" /></g></g><path
           inkscape:connector-curvature="0"
           id="path4493"
           d="m 158.55689,118.56238 14.56448,-14.50531 c 1.1939,-1.18912 2.9839,-1.20261 3.97735,-0.0273 0.99217,1.17327 0.82776,3.10679 -0.36653,4.29773 l -1.19113,1.18527 -13.37094,13.31839 c -0.73904,0.73574 -1.703,1.02029 -2.56717,0.85554 -0.47376,-0.0907 -0.91758,-0.31535 -1.27497,-0.67686 -0.0473,-0.0467 -0.0934,-0.0975 -0.13729,-0.14976 -0.99234,-1.17304 -0.82758,-3.10877 0.36617,-4.29766 z"
           style="fill:#222f3e;fill-opacity:1;stroke-width:0.26350084" /><path
           inkscape:connector-curvature="0"
           id="path4495"
           d="m 158.32779,123.00968 13.3726,-13.31815 c 1.14115,-1.13831 2.8258,-1.20163 3.84047,-0.17891 l -13.37094,13.31839 c -0.73903,0.73575 -1.703,1.02029 -2.56717,0.85554 -0.47356,-0.0905 -0.91705,-0.31564 -1.27497,-0.67685 z"
           style="fill:#323e4d;fill-opacity:1;stroke-width:0.26350084" /><path
           id="path4517"
           d="m 242.32265,122.25348 c -0.7898,-0.0521 -1.58871,-0.0786 -2.39257,-0.0786 h -14.27079 -1.65873 c 13.27671,-0.10478 24.10407,-10.05624 24.10407,-22.209766 V 82.05421 c 0,-8.163721 -3.65571,-15.58444 -9.54465,-20.964794 -5.88893,-5.380355 -14.0111,-8.720345 -22.94651,-8.720345 -17.87081,0 -32.49419,13.357696 -32.49419,29.685139 v 17.910924 c 0,12.153776 10.82736,22.105246 24.10407,22.209766 h -1.77038 -14.16548 c -0.80386,0 -1.60304,0.0262 -2.39257,0.0786 -17.26929,1.12912 -31.01272,14.38959 -31.01272,30.44225 v 4.01902 c 0,1.43841 1.28822,2.61563 2.86287,2.61563 H 270.4736 c 1.57465,0 2.86287,-1.17697 2.86287,-2.61563 v -4.01902 c -8.2e-4,-16.05266 -13.74453,-29.31313 -31.01382,-30.44225 z"
           style="fill:#465261;fill-opacity:1;stroke-width:0.26350084"
           inkscape:connector-curvature="0" /><path
           id="path4519"
           d="m 241.23264,78.727065 v 5.566483 c 0,1.667351 -0.816,3.20625 -2.15191,4.237136 -0.57009,0.444543 -1.23584,0.795644 -1.9752,1.024338 l -19.54029,6.052836 c -1.30256,0.405504 -2.71483,0.405504 -4.01739,0 l -19.54029,-6.052836 c -2.46673,-0.764916 -4.12711,-2.881343 -4.12711,-5.261474 v -5.566483 c 0,-2.098797 1.28822,-4.021287 3.34227,-4.960746 1.67968,-0.76945 4.08162,-1.700094 7.39301,-2.656931 3.52366,-1.017789 8.07751,-2.059758 13.89146,-2.953377 0.69415,-0.106791 1.40511,-0.106791 2.09926,0 11.27422,1.734851 17.81567,4.023554 21.28447,5.610056 2.05322,0.939963 3.34172,2.862201 3.34172,4.960998 z"
           style="fill:#f7c08d;fill-opacity:1;stroke-width:0.26350084"
           inkscape:connector-curvature="0" /><path
           id="path4521"
           d="m 241.23264,78.727065 v 5.566483 c 0,1.667351 -0.816,3.20625 -2.15191,4.237136 l -13.88209,4.30237 c -1.30256,0.403237 -2.71483,0.403237 -4.01739,0 l -19.54029,-6.054851 c -2.46673,-0.762901 -4.12711,-2.879328 -4.12711,-5.259207 v -5.566483 c 0,-2.016185 1.18815,-3.868657 3.10133,-4.843125 3.52366,-1.017789 8.07751,-2.059758 13.89146,-2.953377 0.69415,-0.106791 1.40511,-0.106791 2.09926,0 11.27422,1.734851 17.81567,4.023554 21.28447,5.610056 2.05377,0.939963 3.34227,2.862201 3.34227,4.960998 z"
           style="fill:#f2d1a5;stroke-width:0.26350084"
           inkscape:connector-curvature="0" /><path
           id="path4523"
           d="m 248.10463,94.663613 v 5.301521 c 0,5.894916 -2.5464,11.267466 -6.68205,15.256256 -4.43752,4.28021 -10.70882,6.95855 -17.63236,6.95855 h -16.35626 c -13.37292,0 -24.3144,-9.99655 -24.3144,-22.214554 v -5.301521 c 0,0 3.58679,-2.189972 9.927,-4.201371 11.23756,-3.566166 31.13457,-6.567397 55.05807,4.201119 z"
           style="fill:#222f3e;fill-opacity:1;stroke-width:0.26350084"
           inkscape:connector-curvature="0" /><path
           id="path4525"
           d="m 278.72782,66.976776 c -2.25887,0.659132 -5.14462,1.446716 -8.58475,2.276614 -4.40306,1.063377 -9.71418,2.19778 -15.78148,3.219347 -10.79786,1.822248 -23.9869,3.290121 -38.69629,3.387341 -29.41878,-0.186381 -52.75895,-5.8793 -63.06252,-8.883302 -2.00884,-0.585588 -2.24757,-3.573722 -0.3592,-4.527034 l 53.33951,-29.656175 c 3.15867,-1.593806 6.5988,-2.418414 10.08221,-2.418414 1.7417,0 3.47183,0.207537 5.16171,0.611782 1.28767,0.307276 2.55218,0.732677 3.77948,1.270914 0.38512,0.165476 0.76445,0.346567 1.14102,0.535718 l 53.33951,29.656175 c 1.88837,0.953312 1.64963,3.941446 -0.3592,4.527034 z"
           style="fill:#c63437;fill-opacity:1;stroke-width:0.26350084"
           inkscape:connector-curvature="0" /><path
           id="path4527"
           d="m 278.72782,66.976776 c -2.25887,0.659132 -5.14462,1.446716 -8.58475,2.276614 -8.35787,1.024086 -17.70706,1.733087 -27.76611,1.798824 -29.42181,-0.189151 -52.75895,-5.881819 -63.06252,-8.883302 -2.01187,-0.585588 -2.25032,-3.573722 -0.36224,-4.527033 l 45.65429,-25.38403 c 0.38512,0.165476 0.76445,0.346567 1.14102,0.535718 l 53.33951,29.656175 c 1.88837,0.953312 1.64963,3.941446 -0.3592,4.527034 z"
           style="fill:#e45255;fill-opacity:1;stroke-width:0.26350084"
           inkscape:connector-curvature="0" /><path
           id="path4529"
           d="m 273.33565,152.69573 v 4.01902 c 0,1.43841 -1.28823,2.61563 -2.86287,2.61563 H 176.8116 c -1.57437,0 -2.86287,-1.17697 -2.86287,-2.61563 v -4.01902 c 0,-16.05266 13.74343,-29.31313 31.01299,-30.44225 0.78953,-0.0521 1.58871,-0.0786 2.39257,-0.0786 h 32.57552 c 0.80386,0 1.60304,0.0262 2.39257,0.0786 17.26956,1.12912 31.01327,14.38959 31.01327,30.44225 z"
           style="fill:#556170;fill-opacity:1;stroke-width:0.26350084"
           inkscape:connector-curvature="0" /><path
           id="path4531"
           d="m 223.95122,139.03831 -8.34243,7.62196 -26.71415,-24.40704 c 0.78953,-0.0521 1.58871,-0.0786 2.39257,-0.0786 h 14.20656 z"
           style="fill:#e45255;fill-opacity:1;stroke-width:0.26350084"
           inkscape:connector-curvature="0" /><path
           id="path4533"
           d="m 242.32265,122.25348 c -6.17812,5.64456 -36.3277,33.19036 -40.58162,37.0769 h -16.68238 c 34.27559,-31.31799 40.45233,-36.96079 40.66487,-37.15548 h 14.20656 c 0.80386,0 1.60277,0.0262 2.39257,0.0786 z"
           style="fill:#c63437;fill-opacity:1;stroke-width:0.26350084"
           inkscape:connector-curvature="0" /><g
           transform="matrix(0.27567351,0,0,0.25186567,145.09288,30.375153)"
           id="g4539"><circle
             id="circle4535"
             r="11.708"
             cy="204.685"
             cx="197.033"
             style="fill:#222f3e;fill-opacity:1" /><circle
             id="circle4537"
             r="11.708"
             cy="204.685"
             cx="314.508"
             style="fill:#222f3e;fill-opacity:1" /></g><path
           id="path4541"
           d="m 248.10463,94.663613 v 5.301521 c 0,5.894916 -2.5464,11.267466 -6.68205,15.256256 -2.4229,0.74578 -5.01533,1.15002 -7.70535,1.15002 h -16.35626 c -13.37293,0 -24.31441,-9.99655 -24.31441,-22.21455 v -3.694618 c 11.23756,-3.565914 31.13457,-6.567145 55.05807,4.201371 z"
           style="fill:#323e4d;fill-opacity:1;stroke-width:0.26350084"
           inkscape:connector-curvature="0" /><text
           id="text4698"
           y="145.32509"
           x="135.94827"
           style="font-style:normal;font-variant:normal;font-weight:bold;font-stretch:normal;font-size:40px;line-height:1.25;font-family:Montserrat;-inkscape-font-specification:'Montserrat Bold';letter-spacing:0px;word-spacing:0px;fill:#000000;fill-opacity:1;stroke:none"
           xml:space="preserve"><tspan
             style="font-style:normal;font-variant:normal;font-weight:500;font-stretch:normal;font-size:42.66666794px;line-height:1;font-family:Montserrat;-inkscape-font-specification:'Montserrat Medium';fill:#ffffff;fill-opacity:1"
             y="145.32509"
             x="135.94827"
             id="tspan4696"
             sodipodi:role="line">Ke</tspan></text>
<text
           id="text4702"
           y="144.89903"
           x="240.8622"
           style="font-style:normal;font-weight:normal;font-size:40px;line-height:1.25;font-family:sans-serif;letter-spacing:0px;word-spacing:0px;fill:#ffffff;fill-opacity:1;stroke:none"
           xml:space="preserve"><tspan
             style="font-style:normal;font-variant:normal;font-weight:500;font-stretch:normal;font-size:42.66666794px;font-family:Montserrat;-inkscape-font-specification:'Montserrat Medium';fill:#ffffff;fill-opacity:1"
             y="144.89903"
             x="240.8622"
             id="tspan4700"
             sodipodi:role="line">B  ard</tspan></text>
<g
           id="g4583"
           transform="translate(-0.55231897,0.37277906)"><text
             xml:space="preserve"
             style="font-style:normal;font-weight:normal;font-size:40px;line-height:1.25;font-family:sans-serif;letter-spacing:0px;word-spacing:0px;fill:#000000;fill-opacity:1;stroke:none"
             x="319.9299"
             y="158.87334"
             id="text4800"><tspan
               sodipodi:role="line"
               id="tspan4798"
               x="319.9299"
               y="158.87334"
               style="font-style:normal;font-variant:normal;font-weight:bold;font-stretch:normal;font-size:16px;font-family:Montserrat;-inkscape-font-specification:'Montserrat Bold';fill:#ffffff;fill-opacity:1">n  nja</tspan></text>
<path
             style="fill:#ffffff;fill-opacity:1;stroke-width:0.04065941"
             id="path4844"
             d="m 337.5717,149.81594 2.62316,2.83345 c 0.23427,0.25257 0.23836,0.2503 0.0827,0.5457 l -0.44522,0.85032 c -0.0732,0.1391 -0.27358,0.20464 -0.44791,0.14677 -0.17485,-0.0583 -0.25703,-0.21811 -0.18446,-0.35708 l 0.32534,-0.62087 h -3.7196 v 4.51124 c 0,0.15091 -0.15334,0.27315 -0.34242,0.27315 -0.18908,0 -0.34241,-0.12224 -0.34241,-0.27315 v -4.51124 h -3.7196 l 3.7196,7.10037 v -1.497 c 0,-0.15075 0.15333,-0.27301 0.34241,-0.27301 0.18908,0 0.34242,0.12226 0.34242,0.27301 v 1.497 l 2.8665,-5.47191 c 0.0729,-0.13912 0.2734,-0.20492 0.4479,-0.14678 0.17485,0.0583 0.25703,0.21811 0.18392,0.35708 l -3.52482,6.72894 c -0.11702,0.22324 -0.5148,0.22336 -0.63201,0 l -4.49497,-8.58102 c -0.18429,-0.34944 -0.11507,-0.34687 0.0968,-0.56017 l 2.81938,-2.83969 c 0.069,-0.0696 0.15583,-0.12338 0.25295,-0.15912 v -2.75673 c -1.75691,-1.20925 -0.68946,-3.52366 1.64198,-3.52366 0.36393,0 0.71543,0.0608 1.04415,0.18053 0.17219,0.0627 0.24796,0.22465 0.16934,0.3615 -0.0786,0.13727 -0.28158,0.19768 -0.45377,0.13499 -1.55874,-0.56781 -3.1625,0.74921 -2.4017,1.97379 0.67041,1.07991 2.60999,1.08542 3.28381,0 0.27534,-0.44332 0.24119,-0.95556 -0.0461,-1.36143 -0.0932,-0.13105 -0.0347,-0.2978 0.13003,-0.3717 0.16454,-0.0743 0.37355,-0.0276 0.46622,0.10339 0.5717,0.8065 0.38475,1.85904 -0.55018,2.50259 v 2.71008 c 0.185,0.0204 0.35488,0.0998 0.46658,0.22066 z m -3.45545,0.31994 c -0.004,0 -0.009,9.9e-4 -0.0105,0.003 l -0.28441,0.28661 -2.22615,2.2418 h 3.52572 v -2.53237 c -0.20671,0 -0.67147,0 -1.00465,0 z m 2.30406,-2.91429 c -0.29493,0.0976 -0.61831,0.15102 -0.957,0.15102 -0.33885,0 -0.66206,-0.0535 -0.95698,-0.15102 v 0.5162 h 1.91398 z m 0,1.06219 h -1.91398 v 0.34702 h 1.91398 z m 0,0.893 h -1.91398 v 0.41312 h 1.91398 z m 0.60033,0.96349 c -0.003,-0.003 -0.006,-0.003 -0.0105,-0.003 -0.41642,0 -0.77305,0 -1.20406,0 v 2.53237 h 3.55526 c -0.003,-0.003 -2.13686,-2.3083 -2.34034,-2.52798 z m 0,0"
             inkscape:connector-curvature="0" /></g></g><g
         id="g6680"
         transform="matrix(0.15029285,0,0,0.12828182,279.61366,268.03688)"
         style="fill:#222f3e;fill-opacity:1"><g
           id="g6624"
           style="fill:#222f3e;fill-opacity:1"><path
             id="path6622"
             d="m 123.077,106.864 h 46.73 v 104.033 h -46.73 z M 347.181,79.095 v 249.426 c 0,11.738 -9.552,21.297 -21.29,21.297 H 81.72 c -11.748,0 -21.3,-9.553 -21.3,-21.297 V 79.095 c 0,-11.741 9.552,-21.299 21.3,-21.299 h 244.171 c 11.738,0 21.29,9.552 21.29,21.299 z m -136.279,27.769 c 0,-8.116 -4.173,-15.223 -12.507,-21.311 -8.322,-6.088 -17.898,-9.132 -28.726,-9.132 H 123.21 c -10.914,0 -20.489,3.044 -28.726,9.132 C 86.247,91.641 82.13,98.748 82.13,106.864 V 211.11 c 0,8.115 4.093,15.179 12.283,21.196 8.192,6.022 17.744,9.031 28.664,9.031 L 138.62491,267.51 123.077,241.337 v 0 0 c 10.816,0 57.25206,2.10526 65.38506,-3.92374 8.148,-6.011 22.43894,-18.29426 22.43894,-26.40926 V 106.864 Z M 404.119,38.281 v 331.035 c 0,21.144 -17.147,38.284 -38.284,38.284 H 41.766 C 20.629,407.6 3.482,390.459 3.482,369.316 V 38.281 C 3.482,17.142 20.629,0 41.766,0 h 324.069 c 21.137,0 38.284,17.142 38.284,38.281 z m -41.842,40.814 c 0,-20.058 -16.326,-36.389 -36.387,-36.389 H 81.72 c -20.064,0 -36.396,16.326 -36.396,36.389 v 249.426 c 0,20.055 16.325,36.387 36.396,36.387 h 244.171 c 20.055,0 36.387,-16.326 36.387,-36.387 V 79.095 Z"
             inkscape:connector-curvature="0"
             sodipodi:nodetypes="cccccsssssssssccssssscscccccsccssssssssscssssssscc"
             style="fill:#222f3e;fill-opacity:1" /></g><g
           id="g6626"
           style="fill:#222f3e;fill-opacity:1" /><g
           id="g6628"
           style="fill:#222f3e;fill-opacity:1" /><g
           id="g6630"
           style="fill:#222f3e;fill-opacity:1" /><g
           id="g6632"
           style="fill:#222f3e;fill-opacity:1" /><g
           id="g6634"
           style="fill:#222f3e;fill-opacity:1" /><g
           id="g6636"
           style="fill:#222f3e;fill-opacity:1" /><g
           id="g6638"
           style="fill:#222f3e;fill-opacity:1" /><g
           id="g6640"
           style="fill:#222f3e;fill-opacity:1" /><g
           id="g6642"
           style="fill:#222f3e;fill-opacity:1" /><g
           id="g6644"
           style="fill:#222f3e;fill-opacity:1" /><g
           id="g6646"
           style="fill:#222f3e;fill-opacity:1" /><g
           id="g6648"
           style="fill:#222f3e;fill-opacity:1" /><g
           id="g6650"
           style="fill:#222f3e;fill-opacity:1" /><g
           id="g6652"
           style="fill:#222f3e;fill-opacity:1" /><g
           id="g6654"
           style="fill:#222f3e;fill-opacity:1" /></g></g></g></svg>