<?xml version="1.0" encoding="UTF-8" standalone="no"?>
<!-- Created with Inkscape (http://www.inkscape.org/) -->

<svg
   xmlns:dc="http://purl.org/dc/elements/1.1/"
   xmlns:cc="http://creativecommons.org/ns#"
   xmlns:rdf="http://www.w3.org/1999/02/22-rdf-syntax-ns#"
   xmlns:svg="http://www.w3.org/2000/svg"
   xmlns="http://www.w3.org/2000/svg"
   xmlns:sodipodi="http://sodipodi.sourceforge.net/DTD/sodipodi-0.dtd"
   xmlns:inkscape="http://www.inkscape.org/namespaces/inkscape"
   width="140mm"
   height="140mm"
   viewBox="0 0 140 140"
   version="1.1"
   id="svg8"
   inkscape:version="0.92.1 r15371"
   sodipodi:docname="loading.svg">
  <defs
     id="defs2" />
  <sodipodi:namedview
     id="base"
     pagecolor="#ffffff"
     bordercolor="#666666"
     borderopacity="1.0"
     inkscape:pageopacity="0.0"
     inkscape:pageshadow="2"
     inkscape:zoom="0.7"
     inkscape:cx="439.54"
     inkscape:cy="200.15602"
     inkscape:document-units="mm"
     inkscape:current-layer="g4584"
     showgrid="false"
     inkscape:window-width="1366"
     inkscape:window-height="705"
     inkscape:window-x="-8"
     inkscape:window-y="-8"
     inkscape:window-maximized="1" />
  <metadata
     id="metadata5">
    <rdf:RDF>
      <cc:Work
         rdf:about="">
        <dc:format>image/svg+xml</dc:format>
        <dc:type
           rdf:resource="http://purl.org/dc/dcmitype/StillImage" />
        <dc:title></dc:title>
      </cc:Work>
    </rdf:RDF>
  </metadata>
  <g
     inkscape:label="Layer 1"
     inkscape:groupmode="layer"
     id="layer1"
     transform="translate(0,-157)">
    <g
       id="g4584"
       transform="matrix(2.6257746,0,0,2.6257746,29.168649,28.813834)">
      <g
         id="g4528"
         transform="matrix(0.6779219,0.64502125,-0.64502951,0.67791322,14.814885,50.424813)">
        <path
           id="path4526"
           d="m 24.379,33.023 13.705,5.06 -5.06,-13.706 c -0.076,0.093 -0.158,0.184 -0.244,0.271 -1.324,1.324 -3.43,1.365 -4.819,0.152 l -2.365,-2.365 c 1.106,-2.136 1.103,-4.698 -0.019,-6.829 l 1.877,-1.876 c 0,0.003 10e-4,0.004 10e-4,0.005 h 0.052 c 0.083,-0.104 0.17,-0.204 0.266,-0.3 1.383,-1.383 3.625,-1.383 5.006,0 0.088,0.087 0.17,0.178 0.246,0.271 L 38.084,0.001 24.378,5.061 c 0.093,0.076 0.184,0.158 0.271,0.245 1.323,1.324 1.365,3.429 0.152,4.819 L 22.436,12.49 C 20.3,11.383 17.738,11.388 15.607,12.508 l -1.876,-1.876 c 10e-4,0 0.002,-10e-4 0.003,-0.002 v -0.052 c -0.104,-0.083 -0.204,-0.17 -0.3,-0.266 -1.383,-1.383 -1.383,-3.624 0,-5.007 0.087,-0.087 0.178,-0.168 0.271,-0.245 L 0,0 5.059,13.706 c 0.076,-0.093 0.158,-0.184 0.245,-0.271 1.324,-1.324 3.429,-1.366 4.819,-0.153 l 2.365,2.365 c -1.107,2.136 -1.102,4.698 0.018,6.83 l -1.876,1.875 c 0,0 -0.001,-0.002 -0.002,-0.002 h -0.052 c -0.083,0.104 -0.17,0.203 -0.266,0.299 -1.383,1.384 -3.624,1.384 -5.006,0 C 5.217,24.563 5.135,24.471 5.059,24.378 L 0.001,38.084 13.707,33.024 C 13.614,32.948 13.523,32.867 13.436,32.78 12.112,31.456 12.07,29.35 13.283,27.961 l 2.365,-2.365 c 2.136,1.107 4.699,1.103 6.83,-0.018 l 1.875,1.876 c 0,0 -0.002,10e-4 -0.003,0.002 v 0.052 c 0.104,0.083 0.204,0.17 0.3,0.267 1.383,1.383 1.383,3.623 0,5.006 -0.086,0.086 -0.178,0.167 -0.271,0.242 z M 19.042,21.655 c -1.442,0 -2.611,-1.17 -2.611,-2.611 0,-1.442 1.169,-2.611 2.611,-2.611 1.441,0 2.611,1.169 2.611,2.611 0,1.441 -1.169,2.611 -2.611,2.611 z"
           style="fill:#010002"
           inkscape:connector-curvature="0" />
      </g>
      <g
         id="g4530" />
      <g
         id="g4532" />
      <g
         id="g4534" />
      <g
         id="g4536" />
      <g
         id="g4538" />
      <g
         id="g4540" />
      <g
         id="g4542" />
      <g
         id="g4544" />
      <g
         id="g4546" />
      <g
         id="g4548" />
      <g
         id="g4550" />
      <g
         id="g4552" />
      <g
         id="g4554" />
      <g
         id="g4556" />
      <g
         id="g4558" />
    </g>
  </g>
</svg>
